<?xml version="1.0" encoding="iso-8859-1"?>
<!-- Generator: Adobe Illustrator 20.1.0, SVG Export Plug-In . SVG Version: 6.00 Build 0)  -->
<svg xmlns="http://www.w3.org/2000/svg" xmlns:xlink="http://www.w3.org/1999/xlink" version="1.1" id="&#1057;&#1083;&#1086;&#1081;_1" x="0px" y="0px" viewBox="0 0 64 64" style="enable-background:new 0 0 64 64;" xml:space="preserve">
<linearGradient id="SVGID_1__44862" gradientUnits="userSpaceOnUse" x1="17" y1="14.6667" x2="17" y2="23.085" spreadMethod="reflect">
	<stop offset="0" style="stop-color:#6DC7FF"/>
	<stop offset="1" style="stop-color:#E6ABFF"/>
</linearGradient>
<circle style="fill:url(#SVGID_1__44862);" cx="17" cy="19" r="4"/>
<linearGradient id="SVGID_2__44862" gradientUnits="userSpaceOnUse" x1="37" y1="19.5833" x2="37" y2="26.2521" spreadMethod="reflect">
	<stop offset="0" style="stop-color:#6DC7FF"/>
	<stop offset="1" style="stop-color:#E6ABFF"/>
</linearGradient>
<circle style="fill:url(#SVGID_2__44862);" cx="37" cy="23" r="3"/>
<linearGradient id="SVGID_3__44862" gradientUnits="userSpaceOnUse" x1="32" y1="7" x2="32" y2="57.9275" spreadMethod="reflect">
	<stop offset="0" style="stop-color:#1A6DFF"/>
	<stop offset="1" style="stop-color:#C822FF"/>
</linearGradient>
<path style="fill:url(#SVGID_3__44862);" d="M56,28h-1h-1h-0.698c-0.393,0-0.774,0.115-1.104,0.333L46.636,33H44v-2  c0-1.388-0.952-2.547-2.234-2.888C43.137,26.833,44,25.017,44,23c0-3.859-3.141-7-7-7h-9.415C26.26,11.318,21.934,8,17,8  C10.935,8,6,12.935,6,19c0,5.728,4.402,10.442,10,10.949v2.235c-0.847,0.302-1.514,0.969-1.816,1.816h-2.369  c-0.414-1.162-1.514-2-2.816-2c-1.654,0-3,1.346-3,3s1.346,3,3,3c1.302,0,2.402-0.838,2.816-2h2.369  c0.302,0.847,0.969,1.514,1.816,1.816V47c0,2.757,2.243,5,5,5v1c0,1.654,1.346,3,3,3h12c1.654,0,3-1.346,3-3v-1c2.757,0,5-2.243,5-5  h2.635l5.47,4.599l0.093,0.068C52.527,51.885,52.909,52,53.302,52H54h1h1c1.103,0,2-0.897,2-2V30C58,28.897,57.103,28,56,28z M9,36  c-0.552,0-1-0.448-1-1s0.448-1,1-1s1,0.448,1,1S9.552,36,9,36z M17,28c-4.963,0-9-4.037-9-9s4.037-9,9-9  c4.263,0,7.972,3.027,8.818,7.199L25.981,18H27h10c2.757,0,5,2.243,5,5s-2.243,5-5,5H18H17z M37,53c0,0.552-0.448,1-1,1H24  c-0.552,0-1-0.448-1-1v-1h14V53z M42,47c0,1.654-1.346,3-3,3H21c-1.654,0-3-1.346-3-3V30h19h4c0.552,0,1,0.448,1,1V47z M48,34.466  l4-3.363v17.795l-4-3.363V34.466z M46,45h-2V35h2V45z M55,50h-1V30h1h1l0.002,20H55z"/>
<linearGradient id="SVGID_4__44862" gradientUnits="userSpaceOnUse" x1="37" y1="7" x2="37" y2="57.9275" spreadMethod="reflect">
	<stop offset="0" style="stop-color:#1A6DFF"/>
	<stop offset="1" style="stop-color:#C822FF"/>
</linearGradient>
<path style="fill:url(#SVGID_4__44862);" d="M38,32h-4v16h4c1.103,0,2-0.897,2-2V34C40,32.897,39.103,32,38,32z M38,46h-2V34h2V46z"/>
</svg>
